<!DOCTYPE svg PUBLIC "-//W3C//DTD SVG 1.1//EN" "http://www.w3.org/Graphics/SVG/1.1/DTD/svg11.dtd"[]><svg xmlns="http://www.w3.org/2000/svg" version="1.1" width="250" height="230" style="shape-rendering:geometricPrecision; text-rendering:geometricPrecision; image-rendering:optimizeQuality; fill-rule:evenodd; clip-rule:evenodd" xmlns:xlink="http://www.w3.org/1999/xlink" viewBox="0 0 4964 4582"><g><path style="opacity:0.999" fill="#4284f3" d="M 1645.5,0.5 C 1645.23,2.09903 1645.57,3.43236 1646.5,4.5C 1646.81,118.508 1646.48,232.508 1645.5,346.5C 1450.85,347.325 1256.18,347.825 1061.5,348C 1055.6,349.981 1052.77,354.148 1053,360.5C 1052.83,402.167 1052.67,443.833 1052.5,485.5C 1053.83,1157.17 1053.83,1828.83 1052.5,2500.5C 1052.35,2540.2 1052.85,2579.86 1054,2619.5C 1054.69,2622.2 1056.19,2624.36 1058.5,2626C 1063.26,2627.2 1068.09,2628.03 1073,2628.5C 1260.49,2627.34 1447.99,2627.17 1635.5,2628C 1641.67,2628.83 1645.17,2632.33 1646,2638.5C 1646.02,2746.83 1645.86,2855.17 1645.5,2963.5C 1645.5,2963.83 1645.5,2964.17 1645.5,2964.5C 1372.83,2964.33 1100.17,2964.5 827.5,2965C 826.177,2965.82 825.511,2966.98 825.5,2968.5C 767.025,2953.87 728.525,2917.54 710,2859.5C 709.333,1938.17 709.333,1016.83 710,95.5C 722.084,59.0837 745.251,32.2504 779.5,15C 791.6,9.74407 803.933,5.07741 816.5,1C 1092.83,0.5 1369.17,0.333334 1645.5,0.5 Z" /></g><g><path style="opacity:0.818" fill="#dde8fc" d="M 1645.5,0.5 C 1650.44,0.632143 1650.77,1.96548 1646.5,4.5C 1645.57,3.43236 1645.23,2.09903 1645.5,0.5 Z" /></g><g><path style="opacity:0.875" fill="#bdeee6" d="M 3265.5,0.5 C 3265.77,2.09903 3265.43,3.43236 3264.5,4.5C 3261.65,2.20248 3261.99,0.869147 3265.5,0.5 Z" /></g><g><path style="opacity:0.998" fill="#00bea4" d="M 3265.5,0.5 C 3541.83,0.333334 3818.17,0.5 4094.5,1C 4095.88,2.71337 4097.54,4.0467 4099.5,5C 4142.79,13.0528 4173.95,36.8861 4193,76.5C 4193.67,1011.17 4193.67,1945.83 4193,2880.5C 4171.16,2928.18 4134.66,2957.51 4083.5,2968.5C 4081.21,2964.95 4077.88,2963.28 4073.5,2963.5C 3804.18,2964.5 3534.84,2964.83 3265.5,2964.5C 3265.5,2964.17 3265.5,2963.83 3265.5,2963.5C 3265.6,2854.16 3265.43,2744.83 3265,2635.5C 3265.3,2633.11 3266.14,2630.94 3267.5,2629C 3462.42,2627.67 3657.42,2627 3852.5,2627C 3854.62,2625.88 3856.46,2624.38 3858,2622.5C 3858.17,2245.17 3858.33,1867.83 3858.5,1490.5C 3858.67,1112.11 3858.17,733.779 3857,355.5C 3855.43,351.6 3852.6,349.1 3848.5,348C 3842.7,347.116 3836.87,346.616 3831,346.5C 3642.68,347.831 3454.51,347.831 3266.5,346.5C 3265.75,232.499 3265.08,118.499 3264.5,4.5C 3265.43,3.43236 3265.77,2.09903 3265.5,0.5 Z" /></g><g><path style="opacity:0.999" fill="#4285f3" d="M 1914.5,1356.5 C 1912.78,1358.78 1912.11,1361.45 1912.5,1364.5C 1906.11,1380.62 1898.61,1396.29 1890,1411.5C 1719.06,1721.7 1549.4,2032.7 1381,2344.5C 1377.97,2348.36 1374.8,2352.03 1371.5,2355.5C 1370.34,1776.84 1370.17,1198.17 1371,619.5C 1371.64,610.527 1376.47,606.027 1385.5,606C 1399.17,605.833 1412.83,605.667 1426.5,605.5C 1573.5,606.819 1720.5,606.819 1867.5,605.5C 1878.5,605.667 1889.5,605.833 1900.5,606C 1909.47,606.641 1913.97,611.474 1914,620.5C 1913.23,865.845 1913.4,1111.18 1914.5,1356.5 Z" /></g><g><path style="opacity:1" fill="#00bea4" d="M 3539.5,2354.5 C 3537.2,2352.71 3535.04,2350.71 3533,2348.5C 3358.6,2025.37 3182.94,1703.03 3006,1381.5C 3002.42,1374.35 2999.42,1367.02 2997,1359.5C 2993.96,1358.2 2992.79,1355.86 2993.5,1352.5C 2994.44,1107.15 2994.44,861.82 2993.5,616.5C 2993.39,611.963 2995.39,608.797 2999.5,607C 3006.29,605.973 3013.12,605.473 3020,605.5C 3186.33,606.828 3352.67,606.828 3519,605.5C 3524.55,605.526 3530.05,606.026 3535.5,607C 3537.29,607.785 3538.79,608.951 3540,610.5C 3540.83,1191.9 3540.67,1773.24 3539.5,2354.5 Z" /></g><g><path style="opacity:0.999" fill="#bdede7" d="M 2718.5,871.5 C 2717.05,872.302 2715.38,872.802 2713.5,873C 2540.17,873.667 2366.83,873.667 2193.5,873C 2190.64,872.817 2187.97,872.317 2185.5,871.5C 2186.47,871.013 2187.47,870.513 2188.5,870C 2364.5,869.333 2540.5,869.333 2716.5,870C 2717.42,870.278 2718.08,870.778 2718.5,871.5 Z" /></g><g><path style="opacity:0.999" fill="#4ec1f5" d="M 2185.5,871.5 C 2187.97,872.317 2190.64,872.817 2193.5,873C 2366.83,873.667 2540.17,873.667 2713.5,873C 2715.38,872.802 2717.05,872.302 2718.5,871.5C 2719.96,871.433 2721.29,871.766 2722.5,872.5C 2719.51,880.586 2716.01,888.586 2712,896.5C 2630.1,1047.98 2547.43,1198.98 2464,1349.5C 2462.53,1354.91 2460.86,1360.24 2459,1365.5C 2458.5,1367.81 2458.34,1370.14 2458.5,1372.5C 2455.22,1372.27 2452.72,1373.6 2451,1376.5C 2274.01,1701.8 2097.01,2027.13 1920,2352.5C 1917.45,2356.72 1913.95,2359.89 1909.5,2362C 1732.48,2362.17 1555.48,2362.67 1378.5,2363.5C 1373.39,2363.28 1371.05,2360.61 1371.5,2355.5C 1374.8,2352.03 1377.97,2348.36 1381,2344.5C 1549.4,2032.7 1719.06,1721.7 1890,1411.5C 1898.61,1396.29 1906.11,1380.62 1912.5,1364.5C 1913.5,1364.59 1914.33,1364.25 1915,1363.5C 1915.91,1361.34 1916.08,1359.34 1915.5,1357.5C 1926.81,1339.56 1937.64,1321.23 1948,1302.5C 2024.67,1161.17 2101.33,1019.83 2178,878.5C 2180.37,875.961 2182.87,873.628 2185.5,871.5 Z" /></g><g><path style="opacity:0.999" fill="#1ce7b5" d="M 2722.5,872.5 C 2726.99,872.161 2730.49,873.827 2733,877.5C 2817.99,1034.13 2902.99,1190.8 2988,1347.5C 2989.05,1350.06 2990.89,1351.72 2993.5,1352.5C 2992.79,1355.86 2993.96,1358.2 2997,1359.5C 2999.42,1367.02 3002.42,1374.35 3006,1381.5C 3182.94,1703.03 3358.6,2025.37 3533,2348.5C 3535.04,2350.71 3537.2,2352.71 3539.5,2354.5C 3540.68,2360.54 3538.35,2363.54 3532.5,2363.5C 3356.18,2362.67 3179.84,2362.17 3003.5,2362C 2997.54,2360.38 2993.04,2356.88 2990,2351.5C 2982.53,2335.22 2974.53,2319.22 2966,2303.5C 2796.83,1995.15 2628.16,1686.49 2460,1377.5C 2459.39,1375.85 2458.89,1374.18 2458.5,1372.5C 2458.34,1370.14 2458.5,1367.81 2459,1365.5C 2460.86,1360.24 2462.53,1354.91 2464,1349.5C 2547.43,1198.98 2630.1,1047.98 2712,896.5C 2716.01,888.586 2719.51,880.586 2722.5,872.5 Z" /></g><g><path style="opacity:1" fill="#a2c3f8" d="M 1914.5,1356.5 C 1914.5,1357.17 1914.83,1357.5 1915.5,1357.5C 1916.08,1359.34 1915.91,1361.34 1915,1363.5C 1914.33,1364.25 1913.5,1364.59 1912.5,1364.5C 1912.11,1361.45 1912.78,1358.78 1914.5,1356.5 Z" /></g><g><path style="opacity:0.813" fill="#dce8fc" d="M 1645.5,2963.5 C 1647.26,2964.29 1648.59,2965.63 1649.5,2967.5C 1648.31,2968.43 1646.98,2968.76 1645.5,2968.5C 1645.5,2967.17 1645.5,2965.83 1645.5,2964.5C 1645.5,2964.17 1645.5,2963.83 1645.5,2963.5 Z" /></g><g><path style="opacity:0.864" fill="#bdeee6" d="M 3265.5,2963.5 C 3265.5,2963.83 3265.5,2964.17 3265.5,2964.5C 3265.5,2965.83 3265.5,2967.17 3265.5,2968.5C 3264.32,2968.72 3263.32,2968.39 3262.5,2967.5C 3263.04,2965.74 3264.04,2964.41 3265.5,2963.5 Z" /></g><g><path style="opacity:1" fill="#5893f4" d="M 1645.5,2964.5 C 1645.5,2965.83 1645.5,2967.17 1645.5,2968.5C 1372.17,2968.5 1098.83,2968.5 825.5,2968.5C 825.511,2966.98 826.177,2965.82 827.5,2965C 1100.17,2964.5 1372.83,2964.33 1645.5,2964.5 Z" /></g><g><path style="opacity:1" fill="#1fc6af" d="M 4083.5,2968.5 C 3810.83,2968.5 3538.17,2968.5 3265.5,2968.5C 3265.5,2967.17 3265.5,2965.83 3265.5,2964.5C 3534.84,2964.83 3804.18,2964.5 4073.5,2963.5C 4077.88,2963.28 4081.21,2964.95 4083.5,2968.5 Z" /></g><g><path style="opacity:0.986" fill="#656665" d="M 173.5,3549.5 C 189.833,3549.5 206.167,3549.5 222.5,3549.5C 246.354,3646.91 270.52,3744.25 295,3841.5C 325.067,3744.63 354.734,3647.63 384,3550.5C 399.422,3549.51 414.922,3549.18 430.5,3549.5C 458.288,3647.03 486.788,3744.37 516,3841.5C 540.152,3744.56 564.152,3647.56 588,3550.5C 604.426,3549.34 620.926,3549.18 637.5,3550C 604.284,3671.03 571.45,3792.2 539,3913.5C 531.409,3914.16 523.743,3914.49 516,3914.5C 508.257,3914.49 500.591,3914.16 493,3913.5C 464.787,3816.31 436.121,3719.31 407,3622.5C 377.181,3719.44 347.514,3816.44 318,3913.5C 302.667,3914.83 287.333,3914.83 272,3913.5C 238.851,3792.24 206.017,3670.9 173.5,3549.5 Z" /></g><g><path style="opacity:0.981" fill="#656665" d="M 2046.5,3549.5 C 2129.17,3549.5 2211.83,3549.5 2294.5,3549.5C 2294.5,3563.5 2294.5,3577.5 2294.5,3591.5C 2260.83,3591.5 2227.17,3591.5 2193.5,3591.5C 2193.5,3699.17 2193.5,3806.83 2193.5,3914.5C 2178.5,3914.5 2163.5,3914.5 2148.5,3914.5C 2148.5,3806.83 2148.5,3699.17 2148.5,3591.5C 2114.5,3591.5 2080.5,3591.5 2046.5,3591.5C 2046.5,3577.5 2046.5,3563.5 2046.5,3549.5 Z" /></g><g><path style="opacity:0.987" fill="#656665" d="M 2868.5,3549.5 C 2883.17,3549.5 2897.83,3549.5 2912.5,3549.5C 2912.83,3596.86 2912.33,3644.2 2911,3691.5C 2931.43,3661.28 2960.1,3645.95 2997,3645.5C 3053.58,3646.74 3085.58,3675.41 3093,3731.5C 3093.5,3792.5 3093.67,3853.5 3093.5,3914.5C 3078.83,3914.5 3064.17,3914.5 3049.5,3914.5C 3049.67,3857.17 3049.5,3799.83 3049,3742.5C 3044.47,3705.79 3023.64,3686.79 2986.5,3685.5C 2960.14,3687.76 2939.97,3700.1 2926,3722.5C 2919.1,3733.54 2914.76,3745.54 2913,3758.5C 2912.5,3810.5 2912.33,3862.5 2912.5,3914.5C 2897.83,3914.5 2883.17,3914.5 2868.5,3914.5C 2868.5,3792.83 2868.5,3671.17 2868.5,3549.5 Z" /></g><g><path style="opacity:0.985" fill="#656665" d="M 3870.5,3549.5 C 3885.17,3549.5 3899.83,3549.5 3914.5,3549.5C 3914.33,3625.17 3914.5,3700.83 3915,3776.5C 3955.17,3735.67 3995.33,3694.83 4035.5,3654C 4054.16,3653.5 4072.83,3653.33 4091.5,3653.5C 4091.65,3654.55 4091.48,3655.55 4091,3656.5C 4057.53,3690.97 4023.69,3725.14 3989.5,3759C 4024.04,3808.57 4058.2,3858.41 4092,3908.5C 4093.13,3910.35 4093.63,3912.35 4093.5,3914.5C 4076.16,3914.67 4058.83,3914.5 4041.5,3914C 4013.79,3872.75 3985.96,3831.58 3958,3790.5C 3943.67,3804.83 3929.33,3819.17 3915,3833.5C 3914.5,3860.5 3914.33,3887.5 3914.5,3914.5C 3899.83,3914.5 3885.17,3914.5 3870.5,3914.5C 3870.5,3792.83 3870.5,3671.17 3870.5,3549.5 Z" /></g><g><path style="opacity:0.985" fill="#656665" d="M 758.5,3645.5 C 807.006,3643.01 846.173,3660.68 876,3698.5C 904.115,3741.95 909.781,3788.29 893,3837.5C 869.587,3891.98 828.087,3920.31 768.5,3922.5C 708.46,3920.42 666.96,3891.75 644,3836.5C 628.944,3791.39 632.944,3748.05 656,3706.5C 680.392,3669.88 714.559,3649.55 758.5,3645.5 Z M 763.5,3685.5 C 807.704,3686.18 837.537,3707.18 853,3748.5C 863.957,3785.42 858.291,3819.42 836,3850.5C 805.736,3882.55 770.236,3890.05 729.5,3873C 695.497,3853.35 678.497,3823.69 678.5,3784C 678.528,3746.26 694.194,3717.26 725.5,3697C 737.539,3690.66 750.206,3686.83 763.5,3685.5 Z" /></g><g><path style="opacity:0.984" fill="#656665" d="M 1063.5,3645.5 C 1098.95,3642.81 1126.78,3655.81 1147,3684.5C 1148.67,3687.83 1150.33,3691.17 1152,3694.5C 1181.05,3653.02 1220.55,3637.86 1270.5,3649C 1302.19,3659.14 1321.36,3680.64 1328,3713.5C 1329.54,3720.42 1330.54,3727.42 1331,3734.5C 1331.5,3794.5 1331.67,3854.5 1331.5,3914.5C 1316.83,3914.5 1302.17,3914.5 1287.5,3914.5C 1287.67,3856.17 1287.5,3797.83 1287,3739.5C 1283.95,3704.95 1265.12,3686.95 1230.5,3685.5C 1204.01,3687.5 1184.51,3700.17 1172,3723.5C 1166.44,3734.53 1163.1,3746.19 1162,3758.5C 1161.5,3810.5 1161.33,3862.5 1161.5,3914.5C 1146.83,3914.5 1132.17,3914.5 1117.5,3914.5C 1117.67,3857.5 1117.5,3800.5 1117,3743.5C 1115.8,3706.8 1096.96,3687.46 1060.5,3685.5C 1038.96,3686.85 1021.8,3696.18 1009,3713.5C 998.585,3728.15 992.918,3744.48 992,3762.5C 991.5,3813.17 991.333,3863.83 991.5,3914.5C 976.833,3914.5 962.167,3914.5 947.5,3914.5C 947.5,3827.5 947.5,3740.5 947.5,3653.5C 961.5,3653.5 975.5,3653.5 989.5,3653.5C 989.168,3666.18 989.501,3678.85 990.5,3691.5C 1007.97,3665.27 1032.3,3649.93 1063.5,3645.5 Z" /></g><g><path style="opacity:0.985" fill="#656665" d="M 1495.5,3645.5 C 1535.05,3642.73 1568.88,3655.07 1597,3682.5C 1623.27,3714.41 1633.77,3750.91 1628.5,3792C 1560.17,3792.33 1491.83,3792.67 1423.5,3793C 1425.24,3822.81 1437.57,3847.15 1460.5,3866C 1491.4,3885.87 1523.07,3887.2 1555.5,3870C 1568.38,3860.45 1579.22,3848.95 1588,3835.5C 1600.69,3840.76 1612.86,3846.93 1624.5,3854C 1599.87,3899.34 1561.53,3922.17 1509.5,3922.5C 1451.42,3920.56 1411.26,3892.89 1389,3839.5C 1375.59,3799.79 1376.59,3760.46 1392,3721.5C 1412.22,3676.49 1446.72,3651.16 1495.5,3645.5 Z M 1499.5,3685.5 C 1547.65,3684.88 1575.65,3708.21 1583.5,3755.5C 1531.17,3755.67 1478.83,3755.5 1426.5,3755C 1432.76,3725.42 1449.42,3704.09 1476.5,3691C 1484.13,3688.44 1491.8,3686.61 1499.5,3685.5 Z" /></g><g><path style="opacity:0.985" fill="#656665" d="M 1799.5,3645.5 C 1826.8,3643.32 1851.46,3650.15 1873.5,3666C 1891.84,3683.51 1902,3705.01 1904,3730.5C 1904.5,3791.83 1904.67,3853.17 1904.5,3914.5C 1889.83,3914.5 1875.17,3914.5 1860.5,3914.5C 1860.67,3856.83 1860.5,3799.17 1860,3741.5C 1858.49,3715.02 1845.32,3697.52 1820.5,3689C 1775.19,3679.74 1744.69,3696.91 1729,3740.5C 1726.89,3747.69 1725.56,3755.03 1725,3762.5C 1724.5,3813.17 1724.33,3863.83 1724.5,3914.5C 1709.83,3914.5 1695.17,3914.5 1680.5,3914.5C 1680.5,3827.5 1680.5,3740.5 1680.5,3653.5C 1694.5,3653.5 1708.5,3653.5 1722.5,3653.5C 1722.17,3666.18 1722.5,3678.85 1723.5,3691.5C 1741.98,3664.92 1767.32,3649.59 1799.5,3645.5 Z" /></g><g><path style="opacity:0.986" fill="#656665" d="M 2401.5,3645.5 C 2451.84,3641.76 2490.67,3660.76 2518,3702.5C 2533.14,3730.68 2538.97,3760.68 2535.5,3792.5C 2467.17,3792.5 2398.83,3792.5 2330.5,3792.5C 2334.37,3846.54 2363.21,3876.54 2417,3882.5C 2442.54,3881.88 2463.88,3872.22 2481,3853.5C 2485.27,3847.28 2489.77,3841.28 2494.5,3835.5C 2507.11,3841.14 2519.45,3847.31 2531.5,3854C 2506.35,3899 2467.85,3921.84 2416,3922.5C 2357.34,3920.69 2317,3892.69 2295,3838.5C 2286.5,3812.41 2284.17,3785.74 2288,3758.5C 2293.64,3720.69 2311.48,3690.19 2341.5,3667C 2359.75,3654.75 2379.75,3647.58 2401.5,3645.5 Z M 2406.5,3685.5 C 2438.21,3683.94 2462.71,3696.27 2480,3722.5C 2485.3,3732.9 2488.47,3743.9 2489.5,3755.5C 2437.5,3755.5 2385.5,3755.5 2333.5,3755.5C 2341.69,3714.97 2366.03,3691.63 2406.5,3685.5 Z" /></g><g><path style="opacity:0.984" fill="#656665" d="M 2696.5,3645.5 C 2731.22,3642.75 2762.22,3651.92 2789.5,3673C 2803.23,3685.12 2813.23,3699.78 2819.5,3717C 2819.36,3717.77 2819.02,3718.44 2818.5,3719C 2805.92,3723.97 2793.42,3729.14 2781,3734.5C 2758.72,3691.83 2724.22,3677.33 2677.5,3691C 2642.84,3707.03 2623.67,3734.19 2620,3772.5C 2616.6,3807.65 2627.43,3837.48 2652.5,3862C 2687.1,3888.05 2722.43,3889.05 2758.5,3865C 2768.68,3855.85 2776.85,3845.35 2783,3833.5C 2795.8,3838.57 2808.46,3843.9 2821,3849.5C 2807.47,3883.68 2782.97,3906.18 2747.5,3917C 2695.13,3930.7 2649.63,3918.87 2611,3881.5C 2579.81,3843.06 2569.14,3799.39 2579,3750.5C 2594.21,3688.45 2633.38,3653.45 2696.5,3645.5 Z" /></g><g><path style="opacity:0.983" fill="#656665" d="M 3271.5,3645.5 C 3305.96,3642.82 3333.46,3655.16 3354,3682.5C 3356,3686.5 3358,3690.5 3360,3694.5C 3389.12,3653.01 3428.62,3637.84 3478.5,3649C 3510.2,3658.71 3529.37,3679.87 3536,3712.5C 3537.43,3719.1 3538.43,3725.77 3539,3732.5C 3539.5,3793.17 3539.67,3853.83 3539.5,3914.5C 3524.83,3914.5 3510.17,3914.5 3495.5,3914.5C 3495.67,3855.83 3495.5,3797.17 3495,3738.5C 3492.14,3703.81 3473.31,3686.14 3438.5,3685.5C 3415.53,3686.56 3397.7,3696.56 3385,3715.5C 3376.01,3729.15 3371.01,3744.15 3370,3760.5C 3369.5,3811.83 3369.33,3863.17 3369.5,3914.5C 3354.83,3914.5 3340.17,3914.5 3325.5,3914.5C 3325.67,3856.83 3325.5,3799.17 3325,3741.5C 3322.88,3705.88 3304.05,3687.21 3268.5,3685.5C 3244.01,3687.18 3225.51,3698.51 3213,3719.5C 3206.81,3730.41 3202.81,3742.08 3201,3754.5C 3200.5,3807.83 3200.33,3861.17 3200.5,3914.5C 3185.5,3914.5 3170.5,3914.5 3155.5,3914.5C 3155.5,3827.5 3155.5,3740.5 3155.5,3653.5C 3169.5,3653.5 3183.5,3653.5 3197.5,3653.5C 3197.17,3666.18 3197.5,3678.85 3198.5,3691.5C 3216.11,3665.57 3240.44,3650.24 3271.5,3645.5 Z" /></g><g><path style="opacity:0.983" fill="#656665" d="M 3685.5,3645.5 C 3709.72,3644.17 3733.05,3648.01 3755.5,3657C 3791.78,3676.01 3809.95,3706.17 3810,3747.5C 3810.5,3803.17 3810.67,3858.83 3810.5,3914.5C 3796.17,3914.5 3781.83,3914.5 3767.5,3914.5C 3767.67,3901.83 3767.5,3889.16 3767,3876.5C 3746.83,3906.43 3718.5,3921.76 3682,3922.5C 3656.52,3922.76 3633.69,3915.26 3613.5,3900C 3585.19,3872.6 3577.36,3840.1 3590,3802.5C 3600.6,3779.78 3617.76,3764.28 3641.5,3756C 3680.03,3744.17 3718.36,3744.83 3756.5,3758C 3760.23,3759.46 3763.73,3761.29 3767,3763.5C 3771.44,3719.61 3751.94,3693.77 3708.5,3686C 3674.69,3682.37 3647.52,3693.87 3627,3720.5C 3616.17,3712.75 3605.51,3704.75 3595,3696.5C 3595.04,3694.72 3595.71,3693.05 3597,3691.5C 3612.17,3671.37 3632,3657.87 3656.5,3651C 3666.19,3648.5 3675.85,3646.67 3685.5,3645.5 Z M 3687.5,3783.5 C 3715.15,3781.4 3741.15,3786.9 3765.5,3800C 3767.06,3802 3767.73,3804.33 3767.5,3807C 3761.99,3847.51 3739.32,3872.51 3699.5,3882C 3676.1,3886.09 3655.94,3879.92 3639,3863.5C 3626.43,3844.57 3626.43,3825.57 3639,3806.5C 3652.21,3792.48 3668.38,3784.81 3687.5,3783.5 Z" /></g><g><path style="opacity:0.986" fill="#656665" d="M 4222.5,3645.5 C 4289.08,3642.96 4332.24,3673.29 4352,3736.5C 4356.17,3754.28 4357.5,3772.28 4356,3790.5C 4287.71,3792.49 4219.21,3793.16 4150.5,3792.5C 4152.59,3834.22 4172.92,3862.72 4211.5,3878C 4247.5,3887.88 4278,3879.04 4303,3851.5C 4306.54,3845.71 4310.54,3840.38 4315,3835.5C 4327.26,3841.38 4339.43,3847.38 4351.5,3853.5C 4327.1,3899.15 4288.76,3922.15 4236.5,3922.5C 4174.67,3920.02 4133.5,3889.68 4113,3831.5C 4100.53,3786.71 4105.53,3744.04 4128,3703.5C 4150.16,3669 4181.66,3649.67 4222.5,3645.5 Z M 4226.5,3685.5 C 4262.42,3683.66 4288.25,3698.66 4304,3730.5C 4307.19,3738.44 4309.35,3746.61 4310.5,3755C 4258.16,3755.83 4205.83,3755.67 4153.5,3754.5C 4159.99,3725.19 4176.66,3704.02 4203.5,3691C 4211.12,3688.34 4218.78,3686.51 4226.5,3685.5 Z" /></g><g><path style="opacity:0.984" fill="#656665" d="M 4666.5,3645.5 C 4693.13,3643.79 4718.13,3649.29 4741.5,3662C 4757.44,3671.36 4769.1,3684.53 4776.5,3701.5C 4764.5,3708.35 4752,3714.35 4739,3719.5C 4722.15,3693.16 4697.98,3682 4666.5,3686C 4649.18,3687.56 4635.68,3695.4 4626,3709.5C 4621.65,3722.79 4624.82,3733.95 4635.5,3743C 4640.72,3746.78 4646.39,3749.78 4652.5,3752C 4675.46,3758.49 4698.46,3764.82 4721.5,3771C 4742.55,3777.41 4759.72,3789.25 4773,3806.5C 4781.77,3821.34 4784.77,3837.34 4782,3854.5C 4777.57,3877.22 4765.4,3894.38 4745.5,3906C 4709.42,3924.1 4672.09,3927.1 4633.5,3915C 4603.23,3903.06 4581.9,3882.06 4569.5,3852C 4582.33,3846.17 4595.17,3840.33 4608,3834.5C 4631.14,3877.8 4666.31,3891.97 4713.5,3877C 4737.72,3866.65 4743.89,3849.82 4732,3826.5C 4724.56,3818.86 4715.73,3813.36 4705.5,3810C 4685.01,3803.71 4664.34,3798.04 4643.5,3793C 4623.24,3787.46 4606.07,3776.96 4592,3761.5C 4579.88,3744.21 4576.21,3725.21 4581,3704.5C 4588.55,3680.62 4604.05,3664.12 4627.5,3655C 4640.22,3650.09 4653.22,3646.93 4666.5,3645.5 Z" /></g><g><path style="opacity:0.99" fill="#656665" d="M 4514.5,3646.5 C 4523.17,3646.33 4531.84,3646.5 4540.5,3647C 4546.26,3647.65 4551.76,3649.15 4557,3651.5C 4557.67,3667.5 4557.67,3683.5 4557,3699.5C 4518.93,3682.26 4487.93,3690.6 4464,3724.5C 4457.41,3735.28 4453.41,3746.95 4452,3759.5C 4451.5,3811.17 4451.33,3862.83 4451.5,3914.5C 4436.83,3914.5 4422.17,3914.5 4407.5,3914.5C 4407.5,3827.5 4407.5,3740.5 4407.5,3653.5C 4421.5,3653.5 4435.5,3653.5 4449.5,3653.5C 4449.33,3667.5 4449.5,3681.5 4450,3695.5C 4463.12,3668.19 4484.62,3651.85 4514.5,3646.5 Z" /></g><g><path style="opacity:0.998" fill="#656665" d="M 1791.5,4240.5 C 1801.5,4240.5 1811.5,4240.5 1821.5,4240.5C 1821.5,4324.5 1821.5,4408.5 1821.5,4492.5C 1811.5,4492.5 1801.5,4492.5 1791.5,4492.5C 1791.5,4408.5 1791.5,4324.5 1791.5,4240.5 Z" /></g><g><path style="opacity:0.966" fill="#656665" d="M 1871.5,4240.5 C 1881.83,4240.5 1892.17,4240.5 1902.5,4240.5C 1902.5,4324.5 1902.5,4408.5 1902.5,4492.5C 1892.17,4492.5 1881.83,4492.5 1871.5,4492.5C 1871.5,4408.5 1871.5,4324.5 1871.5,4240.5 Z" /></g><g><path style="opacity:0.978" fill="#656665" d="M 2015.5,4307.5 C 2060.66,4304.23 2092.83,4322.89 2112,4363.5C 2124.4,4397.53 2121.07,4429.87 2102,4460.5C 2083.36,4485.32 2058.36,4497.99 2027,4498.5C 1984.3,4496.77 1955.3,4476.11 1940,4436.5C 1930.5,4404.85 1934.16,4374.85 1951,4346.5C 1967.05,4324.4 1988.55,4311.4 2015.5,4307.5 Z M 2018.5,4335.5 C 2058.25,4334.96 2081.41,4354.29 2088,4393.5C 2091.54,4425.58 2079.38,4449.42 2051.5,4465C 2014.35,4476.84 1987.18,4465.34 1970,4430.5C 1961.81,4405.81 1964.48,4382.48 1978,4360.5C 1988.5,4347.18 2002,4338.84 2018.5,4335.5 Z" /></g><g><path style="opacity:0.983" fill="#656665" d="M 2231.5,4307.5 C 2280.92,4306.46 2312.09,4329.79 2325,4377.5C 2333.53,4416.88 2323.7,4450.72 2295.5,4479C 2263.59,4502.75 2230.59,4504.42 2196.5,4484C 2189.96,4479.13 2184.46,4473.29 2180,4466.5C 2181.35,4500.4 2181.85,4534.4 2181.5,4568.5C 2171.17,4568.5 2160.83,4568.5 2150.5,4568.5C 2150.5,4483.5 2150.5,4398.5 2150.5,4313.5C 2160.17,4313.5 2169.83,4313.5 2179.5,4313.5C 2179.33,4322.17 2179.5,4330.84 2180,4339.5C 2192.7,4321.57 2209.87,4310.9 2231.5,4307.5 Z M 2230.5,4335.5 C 2259.12,4334.22 2279.29,4346.55 2291,4372.5C 2300.27,4398.02 2297.94,4422.35 2284,4445.5C 2262.2,4472.05 2236.37,4476.88 2206.5,4460C 2188.4,4445.46 2179.4,4426.46 2179.5,4403C 2179.57,4377.52 2189.9,4357.52 2210.5,4343C 2216.96,4339.59 2223.63,4337.09 2230.5,4335.5 Z" /></g><g><path style="opacity:0.977" fill="#656665" d="M 2417.5,4307.5 C 2435.42,4306.13 2452.75,4308.63 2469.5,4315C 2492,4326.14 2504.5,4344.3 2507,4369.5C 2507.5,4410.5 2507.67,4451.5 2507.5,4492.5C 2497.83,4492.5 2488.17,4492.5 2478.5,4492.5C 2478.67,4483.83 2478.5,4475.16 2478,4466.5C 2463.9,4487.05 2444.24,4497.72 2419,4498.5C 2400.39,4498.41 2383.89,4492.58 2369.5,4481C 2351.68,4461.65 2347.18,4439.49 2356,4414.5C 2365.86,4395.63 2381.36,4384.13 2402.5,4380C 2428.67,4374.58 2453.83,4377.42 2478,4388.5C 2479.78,4354.44 2463.61,4336.78 2429.5,4335.5C 2409.39,4335.56 2393.39,4343.56 2381.5,4359.5C 2373.47,4354.15 2365.81,4348.32 2358.5,4342C 2373.02,4321.74 2392.69,4310.24 2417.5,4307.5 Z M 2423.5,4402.5 C 2438.28,4401.81 2452.61,4403.97 2466.5,4409C 2470.83,4410.83 2474.83,4413.16 2478.5,4416C 2475.48,4442.37 2461.48,4460.04 2436.5,4469C 2423.34,4471.99 2410.67,4470.66 2398.5,4465C 2383.29,4454.03 2379.46,4439.86 2387,4422.5C 2396.12,4410.19 2408.29,4403.52 2423.5,4402.5 Z" /></g><g><path style="opacity:0.984" fill="#656665" d="M 2627.5,4307.5 C 2644.49,4305.9 2660.49,4309.07 2675.5,4317C 2693.83,4331.16 2702.99,4349.99 2703,4373.5C 2703.5,4413.17 2703.67,4452.83 2703.5,4492.5C 2693.17,4492.5 2682.83,4492.5 2672.5,4492.5C 2672.67,4453.17 2672.5,4413.83 2672,4374.5C 2669.19,4349.19 2655.02,4336.19 2629.5,4335.5C 2603.82,4337.67 2587.65,4351.33 2581,4376.5C 2579.53,4415.13 2579.03,4453.79 2579.5,4492.5C 2569.17,4492.5 2558.83,4492.5 2548.5,4492.5C 2548.5,4432.83 2548.5,4373.17 2548.5,4313.5C 2558.17,4313.5 2567.83,4313.5 2577.5,4313.5C 2577.33,4322.17 2577.5,4330.84 2578,4339.5C 2589.85,4321.66 2606.35,4310.99 2627.5,4307.5 Z" /></g><g><path style="opacity:0.982" fill="#656665" d="M 2807.5,4307.5 C 2829.76,4305.23 2849.76,4310.73 2867.5,4324C 2872.41,4328.24 2876.58,4333.08 2880,4338.5C 2880.5,4330.17 2880.67,4321.84 2880.5,4313.5C 2890.17,4313.5 2899.83,4313.5 2909.5,4313.5C 2909.67,4375.17 2909.5,4436.83 2909,4498.5C 2904.77,4538.73 2882.94,4563.23 2843.5,4572C 2816.52,4577.25 2791.52,4572.58 2768.5,4558C 2756.56,4548.96 2747.9,4537.46 2742.5,4523.5C 2751.01,4518.83 2759.84,4514.83 2769,4511.5C 2787.16,4542.79 2813.66,4552.62 2848.5,4541C 2869.12,4530.67 2879.62,4513.84 2880,4490.5C 2880.67,4482.17 2880.67,4473.83 2880,4465.5C 2859.16,4491.45 2832.32,4500.95 2799.5,4494C 2768.89,4485.4 2748.73,4465.9 2739,4435.5C 2728.9,4400.16 2734.24,4367.49 2755,4337.5C 2768.8,4320.86 2786.3,4310.86 2807.5,4307.5 Z M 2814.5,4335.5 C 2847.88,4334.06 2869.05,4349.39 2878,4381.5C 2883.66,4405.87 2879.33,4428.2 2865,4448.5C 2845.31,4468.73 2822.47,4473.23 2796.5,4462C 2774.47,4448.06 2763.8,4427.9 2764.5,4401.5C 2764.14,4377.39 2773.47,4358.23 2792.5,4344C 2799.46,4339.85 2806.79,4337.02 2814.5,4335.5 Z" /></g><g><path style="opacity:0.979" fill="#656665" d="M 3022.5,4307.5 C 3068.75,4304.19 3101.25,4323.53 3120,4365.5C 3132.53,4402.46 3127.2,4436.46 3104,4467.5C 3077.52,4494.75 3045.69,4503.92 3008.5,4495C 2965.05,4479.65 2943.05,4448.81 2942.5,4402.5C 2942.64,4361.02 2961.3,4331.52 2998.5,4314C 3006.46,4311.18 3014.46,4309.01 3022.5,4307.5 Z M 3025.5,4335.5 C 3064.59,4334.42 3087.75,4353.09 3095,4391.5C 3099.09,4420.46 3089.59,4443.63 3066.5,4461C 3036.57,4476.45 3010.07,4471.95 2987,4447.5C 2971.38,4424.48 2968.38,4399.81 2978,4373.5C 2987.49,4352.84 3003.32,4340.17 3025.5,4335.5 Z" /></g></svg>